<?xml version="1.0" encoding="UTF-8"?>
<svg xmlns="http://www.w3.org/2000/svg" viewBox="0 0 24 24" width="24" height="24" role="img" aria-label="Google Scholar">
  <title>Scholar</title>
  <!-- Simple mortarboard icon (generic scholarly cap) -->
  <g fill="none" fill-rule="evenodd">
    <path d="M12 2L2 7l10 5 10-5L12 2z" fill="#1A73E8"/>
    <path d="M4 9.1v2.9l8 4 8-4V9.1" fill="#185ABC"/>
    <path d="M12 14.9l-3 1.5V19l3 1.5 3-1.5v-2.6l-3-1.5z" fill="#FFFFFF" opacity="0.9"/>
    <path d="M12 12.5c-.4 0-.8-.2-1-.6-.2-.4-.1-.9.2-1.2l3-2.5c.4-.4 1-.4 1.4 0s.4 1 0 1.4l-3 2.5c-.2.2-.5.4-.6.4z" fill="#FFC107"/>
  </g>
</svg>
